<svg width="21" height="21" viewBox="0 0 21 21" fill="none" xmlns="http://www.w3.org/2000/svg">
<path d="M3.75 11.25C4.12084 11.25 4.48335 11.36 4.7917 11.566C5.10004 11.772 5.34036 12.0649 5.48228 12.4075C5.62419 12.7501 5.66132 13.1271 5.58897 13.4908C5.51663 13.8545 5.33805 14.1886 5.07583 14.4508C4.8136 14.713 4.47951 14.8916 4.1158 14.964C3.75208 15.0363 3.37508 14.9992 3.03247 14.8573C2.68986 14.7154 2.39702 14.475 2.191 14.1667C1.98497 13.8584 1.875 13.4958 1.875 13.125C1.875 12.6277 2.07255 12.1508 2.42418 11.7992C2.77581 11.4475 3.25272 11.25 3.75 11.25ZM3.75 9.375C3.00832 9.375 2.2833 9.59493 1.66661 10.007C1.04993 10.419 0.569282 11.0047 0.285453 11.6899C0.00162482 12.3752 -0.0726377 13.1292 0.0720569 13.8566C0.216751 14.584 0.573904 15.2522 1.09835 15.7766C1.6228 16.3011 2.29098 16.6583 3.01841 16.8029C3.74584 16.9476 4.49984 16.8734 5.18506 16.5895C5.87029 16.3057 6.45596 15.8251 6.86801 15.2084C7.28007 14.5917 7.5 13.8667 7.5 13.125C7.5 12.1304 7.10491 11.1766 6.40165 10.4733C5.69839 9.77009 4.74456 9.375 3.75 9.375Z" fill="#B34000"/>
<path d="M14.0625 1.875C14.8042 1.875 15.5292 2.09493 16.1459 2.50699C16.7626 2.91904 17.2432 3.50471 17.5271 4.18994C17.8109 4.87516 17.8851 5.62916 17.7404 6.35659C17.5958 7.08402 17.2386 7.7522 16.7142 8.27665C16.1897 8.8011 15.5215 9.15825 14.7941 9.30295C14.0667 9.44764 13.3127 9.37338 12.6274 9.08955C11.9422 8.80572 11.3565 8.32507 10.9445 7.70839C10.5324 7.0917 10.3125 6.36668 10.3125 5.625C10.3125 4.63044 10.7076 3.67661 11.4109 2.97335C12.1141 2.27009 13.0679 1.875 14.0625 1.875ZM14.0625 0C12.95 0 11.8624 0.3299 10.9374 0.947983C10.0124 1.56607 9.29142 2.44457 8.86568 3.47241C8.43994 4.50024 8.32854 5.63124 8.54559 6.72238C8.76263 7.81353 9.29836 8.81581 10.085 9.60248C10.8717 10.3891 11.874 10.9249 12.9651 11.1419C14.0563 11.359 15.1873 11.2476 16.2151 10.8218C17.2429 10.3961 18.1214 9.67511 18.7395 8.75008C19.3576 7.82506 19.6875 6.73752 19.6875 5.625C19.6875 4.13316 19.0949 2.70242 18.04 1.64752C16.9851 0.592632 15.5543 0 14.0625 0Z" fill="#B24000"/>
<path d="M17.3438 15.9375C17.6219 15.9375 17.8938 16.02 18.125 16.1745C18.3563 16.329 18.5365 16.5486 18.643 16.8056C18.7494 17.0626 18.7772 17.3453 18.723 17.6181C18.6687 17.8909 18.5348 18.1415 18.3381 18.3381C18.1415 18.5348 17.8909 18.6687 17.6181 18.723C17.3453 18.7772 17.0626 18.7494 16.8056 18.643C16.5486 18.5365 16.329 18.3563 16.1745 18.125C16.02 17.8938 15.9375 17.6219 15.9375 17.3438C15.9375 16.9708 16.0857 16.6131 16.3494 16.3494C16.6131 16.0857 16.9708 15.9375 17.3438 15.9375ZM17.3438 14.0625C16.6948 14.0625 16.0604 14.2549 15.5208 14.6155C14.9812 14.976 14.5606 15.4885 14.3123 16.0881C14.0639 16.6876 13.9989 17.3474 14.1255 17.9839C14.2522 18.6204 14.5647 19.2051 15.0236 19.6639C15.4824 20.1228 16.0671 20.4353 16.7036 20.562C17.3401 20.6886 17.9999 20.6236 18.5994 20.3752C19.199 20.1269 19.7115 19.7063 20.072 19.1667C20.4326 18.6271 20.625 17.9927 20.625 17.3438C20.625 16.4735 20.2793 15.6389 19.6639 15.0236C19.0486 14.4082 18.214 14.0625 17.3438 14.0625Z" fill="#B24000"/>
</svg>
